<svg width="13" height="13" viewBox="0 0 13 13" fill="none" xmlns="http://www.w3.org/2000/svg">
<path fill-rule="evenodd" clip-rule="evenodd" d="M7.66377 7.66379C6.23185 9.09571 3.91024 9.09571 2.47832 7.66379C1.0464 6.23187 1.0464 3.91027 2.47832 2.47834C3.91024 1.04642 6.23185 1.04642 7.66377 2.47834C9.09569 3.91027 9.09569 6.23187 7.66377 7.66379ZM8.10415 9.04675C6.14393 10.5461 3.32834 10.3994 1.53551 8.6066C-0.41711 6.65398 -0.41711 3.48816 1.53551 1.53553C3.48813 -0.417088 6.65396 -0.417088 8.60658 1.53553C10.3993 3.32828 10.5461 6.1437 9.04693 8.10391L12.6136 11.6706L11.6708 12.6134L8.10415 9.04675Z" fill="#A0A0A0"/>
</svg>
