<svg width="25" height="25" viewBox="0 0 25 25" fill="none" xmlns="http://www.w3.org/2000/svg">
<path fill-rule="evenodd" clip-rule="evenodd" d="M14.1786 5.67956L15.9598 7.43372L8.06212 15.4533C7.66582 15.8578 7.66582 16.5088 8.06212 16.9133C8.43817 17.2971 9.06638 17.2954 9.43842 16.9112L18.1276 8.08421C19.3961 6.78968 19.3961 4.71068 18.1276 3.41615C16.9173 2.18104 14.7759 2.20851 13.5897 3.41851L4.10565 13.0461C1.96441 15.2304 1.96441 18.7378 4.10565 20.9221C6.18489 23.0431 9.75673 23.0086 11.8035 20.9201L22.8647 9.68617L24.6461 11.4402L13.5869 22.6721C10.5696 25.7509 5.38756 25.801 2.3204 22.6722C-0.773821 19.5158 -0.773821 14.4524 2.32253 11.2939L11.8066 1.66626C13.9608 -0.531318 17.7125 -0.57945 19.9132 1.66643C22.1342 3.933 22.1342 7.56737 19.9112 9.83597L11.2272 18.6576C9.88392 20.045 7.63662 20.0512 6.27637 18.6629C4.92776 17.2864 4.92776 15.0802 6.27862 13.7015L14.1786 5.67956Z" fill="#CEA100"/>
</svg>
