<svg width="22" height="18" viewBox="0 0 22 18" fill="none" xmlns="http://www.w3.org/2000/svg">
<path fill-rule="evenodd" clip-rule="evenodd" d="M22 4C22 2.89543 21.1046 2 20 2H11.0018C11.0419 1.99978 11.0292 1.98428 10.9412 1.87732L10.9412 1.8773C10.9196 1.85103 10.8935 1.81925 10.8625 1.78082C10.8318 1.74283 10.7461 1.63236 10.6707 1.53515L10.6706 1.535C10.6171 1.46608 10.5688 1.40385 10.549 1.37885C9.83294 0.475451 9.12 0 8 0H2C0.89543 0 0 0.89543 0 2V16C0 17.1046 0.89543 18 2 18H20C21.1046 18 22 17.1046 22 16V4ZM20 4V16H2V2H8C8.38424 2 8.60702 2.14857 8.9816 2.62116C8.9933 2.63592 9.02671 2.67899 9.06841 2.73274L9.06905 2.73357L9.06919 2.73375L9.0692 2.73376L9.06922 2.73379C9.1496 2.83739 9.26028 2.98007 9.30583 3.03654C9.80869 3.65991 10.2765 3.99614 10.9946 3.99999L20 4ZM7 11V9H10V6H12V9H15V11H12V14H10V11H7Z" fill="#CEA100"/>
</svg>
