<svg width="25" height="24" viewBox="0 0 25 24" fill="none" xmlns="http://www.w3.org/2000/svg">
<path fill-rule="evenodd" clip-rule="evenodd" d="M12.5 24C5.59644 24 0 18.6274 0 12C0 5.37258 5.59644 0 12.5 0C19.4036 0 25 5.37258 25 12C25 18.6274 19.4036 24 12.5 24ZM12.5 21.8182C18.1484 21.8182 22.7273 17.4225 22.7273 12C22.7273 6.57761 18.1484 2.18186 12.5 2.18186C6.85168 2.18186 2.27277 6.57761 2.27277 12C2.27277 17.4225 6.85168 21.8182 12.5 21.8182ZM18.1818 10.9091H13.6363V6.54542H11.3636V10.9091H6.81815V13.0909H11.3636V17.4545H13.6363V13.0909H18.1818V10.9091Z" fill="#CEA100"/>
</svg>
