<svg width="35" height="35" viewBox="0 0 35 35" fill="none" xmlns="http://www.w3.org/2000/svg">
<path d="M35 17.5C35 27.165 27.165 35 17.5 35C7.83502 35 0 27.165 0 17.5C0 7.83502 7.83502 0 17.5 0C27.165 0 35 7.83502 35 17.5Z" fill="#CEA100"/>
<path d="M25.7071 18.7071C26.0976 18.3166 26.0976 17.6834 25.7071 17.2929L19.3431 10.9289C18.9526 10.5384 18.3195 10.5384 17.9289 10.9289C17.5384 11.3195 17.5384 11.9526 17.9289 12.3431L23.5858 18L17.9289 23.6569C17.5384 24.0474 17.5384 24.6805 17.9289 25.0711C18.3195 25.4616 18.9526 25.4616 19.3431 25.0711L25.7071 18.7071ZM9 19L25 19V17L9 17V19Z" fill="white"/>
</svg>
