<svg width="18" height="21" viewBox="0 0 18 21" fill="none" xmlns="http://www.w3.org/2000/svg">
<path fill-rule="evenodd" clip-rule="evenodd" d="M18 15.5885V5.19615L9 0L0 5.19615V15.5885L9 20.7846L18 15.5885ZM2 6.35085L9 2.3094L16 6.35085V14.4338L9 18.4752L2 14.4338V6.35085ZM9 15.39C6.23858 15.39 4 13.1514 4 10.39C4 7.62858 6.23858 5.39 9 5.39C11.7614 5.39 14 7.62858 14 10.39C14 13.1514 11.7614 15.39 9 15.39ZM12 10.39C12 12.0469 10.6569 13.39 9 13.39C7.34315 13.39 6 12.0469 6 10.39C6 8.73315 7.34315 7.39 9 7.39C10.6569 7.39 12 8.73315 12 10.39Z" fill="#A0A0A0"/>
</svg>
